<svg width="56" height="56" viewBox="0 0 56 56" fill="none" xmlns="http://www.w3.org/2000/svg">
<path d="M56 28C56 12.536 43.464 0 28 0C12.536 0 0 12.536 0 28C0 43.464 12.536 56 28 56C43.464 56 56 43.464 56 28Z" fill="#231E1B"/>
<path fill-rule="evenodd" clip-rule="evenodd" d="M27.9572 14.336C20.2508 14.336 14 20.5868 14 28.2932C14 34.4583 18.0245 39.6816 23.5046 41.5654C24.1896 41.651 24.4465 41.2229 24.4465 40.8803C24.4465 40.5378 24.4465 39.6816 24.4465 38.4828C20.5933 39.3391 19.737 36.599 19.737 36.599C19.1376 34.9721 18.1957 34.544 18.1957 34.544C16.9113 33.6877 18.2813 33.6877 18.2813 33.6877C19.6514 33.7733 20.422 35.1433 20.422 35.1433C21.7064 37.284 23.6758 36.6846 24.4465 36.3421C24.5321 35.4002 24.9602 34.8008 25.3028 34.4583C22.2202 34.1158 18.9664 32.917 18.9664 27.5225C18.9664 25.9813 19.4801 24.7825 20.422 23.755C20.3364 23.4981 19.8226 22.0424 20.5933 20.1586C20.5933 20.1586 21.792 19.8161 24.4465 21.6143C25.5596 21.2718 26.7584 21.1862 27.9572 21.1862C29.156 21.1862 30.3547 21.3574 31.4679 21.6143C34.1223 19.8161 35.3211 20.1586 35.3211 20.1586C36.0917 22.0424 35.578 23.4981 35.4924 23.8406C36.3486 24.7825 36.948 26.0669 36.948 27.6082C36.948 33.0027 33.6942 34.1158 30.6116 34.4583C31.1254 34.8865 31.5535 35.7427 31.5535 37.0271C31.5535 38.9109 31.5535 40.3666 31.5535 40.8803C31.5535 41.2229 31.8104 41.651 32.4954 41.5654C38.0612 39.6816 42 34.4583 42 28.2932C41.9144 20.5868 35.6636 14.336 27.9572 14.336Z" fill="white"/>
</svg>
