<svg width="56" height="56" viewBox="0 0 56 56" fill="none" xmlns="http://www.w3.org/2000/svg">
<rect width="56" height="56" rx="28" fill="#2878B7"/>
<path d="M39.2 29.0421V36.7641H34.6798V29.513C34.6798 27.7238 34.0206 26.4995 32.4197 26.4995C31.1955 26.4995 30.4421 27.3471 30.1596 28.1004C30.0655 28.3829 29.9713 28.7596 29.9713 29.2305V36.7641H25.4511C25.4511 36.7641 25.5453 24.522 25.4511 23.2977H29.9713V25.1812C30.5363 24.2395 31.6664 22.9211 34.0206 22.9211C36.9399 22.9211 39.2 24.8986 39.2 29.0421ZM20.7426 16.8C19.2359 16.8 18.2 17.8359 18.2 19.1542C18.2 20.4726 19.1417 21.5085 20.6484 21.5085C22.2493 21.5085 23.191 20.4726 23.191 19.1542C23.2852 17.7417 22.3435 16.8 20.7426 16.8ZM18.4825 36.7641H23.0027V23.2977H18.4825V36.7641Z" fill="white"/>
</svg>
